<?xml version="1.0" encoding="utf-8"?>
<!-- Generator: Adobe Illustrator 27.0.1, SVG Export Plug-In . SVG Version: 6.00 Build 0)  -->
<svg version="1.1" id="Layer_1" xmlns="http://www.w3.org/2000/svg" xmlns:xlink="http://www.w3.org/1999/xlink" x="0px" y="0px"
	 viewBox="0 0 500 236.5" style="enable-background:new 0 0 500 236.5;" xml:space="preserve">
<style type="text/css">
	.st0{fill:#FFFFFF;}
</style>
<g>
	<path class="st0" d="M471.66,0c6.42,4.78-3.45,7.38-7.25,7.89c-30.55,4.09-138.4,14.69-157.42,21.28
		c-8.83,36.69-19.85,74.57-27.58,111.35c0.41,1.97-1.97,7.29-3.87,7.83c-1.85,0.24-5.04-1.08-4.26-3.56
		c9.36-38.44,20.36-76.46,30.16-114.78c-48.33,6.87-96.48,14.15-144.72,21.5c-3.48,1.25-12.84,0.34-14.1,3.8
		c-11.01,43.34-24.92,86.31-33.95,130c0.47,2.03-1.91,7.42-3.89,7.94c-1.9,0.2-5.11-1.25-4.18-3.77
		c10.94-45.08,23.41-89.74,34.87-134.7C91.6,61.72,47.85,69.08,4.04,76.39c-2.82,0.47-4.08-0.7-4.04-3.49
		c42.14-12.57,91.69-15.83,136.27-25.3C244.16,30.95,360.12,14.55,471.66,0z"/>
	<path class="st0" d="M500,109.28c-3.25,4.07-7.95,6.1-12.53,8.19c-6.47,1.52-8.89,5.39-12.83,10.2c-6.05,5.46-14.2,1.36-14.94-6.45
		c-13.95,12.13-17.85,1.95-14.7-12.28c-4.45,2.59-21.23,30.7-19.74,12.18c-4.58,5.2-19.47,18.57-24.61,8.67
		c-1.08-2.44-0.04-6.06-1.14-8.09c-10.26,13.59-37.39,20.28-36.9-3.92c-7.44,2.11-7.5,4.34-12.17,9.75
		c-5.35,5.26-12.77,2.52-14.71-4.5c-4.74,3.52-10.41,10.35-16.73,6.37c-6.45-4.88-1.73-13.75-0.94-20.24
		c-2.43,0-4.68-0.03-6.93,0.03c-1.47,0.8-2.54,2.42-4.53,1.45c-2.34-0.62-1.27-3.3-2.69-4.76c-1.78-2.25-3.4-4.45-3.32-7.57
		c-0.28-4.12,5.27-6.54,7.96-3.57c1.66,2.15,3.42,4.59,4.09,7.29c0.22,1.06,0.81,1.3,1.81,1.12c3.24,0.06,8.76-2.94,11.19-0.61
		c2.53,4.14-10.68,26.84,1.24,20.45c5.4-4.25,8.32-10.59,12.34-16c5.89-8.73,17.96-4.91,19.22,5.29c5.29-1.56,9.53-5.32,14.26-8.05
		c3.32-2.23,5.96-5.65,10.27-5.48c1.94-1.57,3.71-0.59,5.33,0.49c3.22,2.04,2.12,6.42,0.55,9.18c-1.95,1.87-4.51,9.07-7.64,7.09
		c-1.37-1.02-3.34-2.05-1.88-3.95c2.21-3.29,5.9-8.45-0.52-4.79c-4.95,2.86-14.18,18.31-5.05,20.08c11.19,2.4,19-8.67,26.12-15.61
		c3.02-2.59,4-6.17,5.57-9.66c2.11-3.17,6.75-1.38,5.62,2.64c-0.85,4.4-10.45,28.22,0.01,20.65c5.64-4.57,11.22-9.29,15.78-14.97
		c1.05-1.25,1.92-2.68,2.68-4.13c2.82-4.98,7.5-0.64,5.42,3.9c-0.13-0.17-0.26-0.35-0.39-0.52c4.01-2.76,7.2-7.55,12.51-7.59
		c3.07,0.09,5.54,3.05,5.02,6.12c-0.68,4.31-1.46,7.83-1.58,12.36c5.38-3.26,8.15-8.79,12.51-13.13c7.3-8.47,17.55-5.15,19.89,5.37
		C487.8,112.06,499.62,99.05,500,109.28z M343.53,114.72c-4.24,7.6,2.64,12.51,5.82,3.73C347.45,117.23,345.55,116.01,343.53,114.72
		z M467.78,114.7c-3.99,7.15,2.16,12.89,5.89,3.77C471.74,117.23,469.8,115.99,467.78,114.7z M472.78,109.04
		c0.25,1.91,0.99,2.64,2.87,2.85C475.17,110.42,474.67,109.1,472.78,109.04z M348.41,109.12c0.55,2.05,1.34,2.75,2.89,2.65
		C350.62,109.68,350.16,109.23,348.41,109.12z"/>
	<path class="st0" d="M225.17,122.36c-4.83,5.78-15.66,16.78-19.91,4.5c-13.42,13.56-19.92,5.9-16.07-10.67
		c-3.62,3.21-11.29,14.05-15.91,17.72c-3.7,2.94-5.29,1-2.34-11.15c-10.9,4.38-10.23,3.67-17.59,12.44
		c-14.98,8.98-17.14-12.37-9.87-21.38c5.55-8.89,17.68-3.87,18.49,5.6c4.26-1.65,9.22-3.41,12.04-7.1c0.86-1.41,2.01-1.9,3.7-1.43
		c2.94,1,1.75,3.76,1.41,6.32c3.99-5.72,16.12-14.78,17.09-2.45c0.03,3.93-2.29,8.58-1.04,12.18c5.44-3.65,8.75-9.52,13.03-14.37
		c1.54-3,6.84-2.22,5.65,1.71c-0.9,4.19-2.55,7.82-2.44,12.22c8.11-4.5,12.92-12.79,18.71-19.75
		c15.91-13.64-17.99,70.42-18.06,75.97c70.7-45.1,171.45-49.59,253.32-46.36c3.89,0.53,4.01,7.7-0.66,6.11
		c-71.79-1.84-160.01,0.19-225.64,31.99c-10.71,5.99-23.75,10.45-31.52,20.21c-2.47,4.45-4.6,9.09-6.72,13.73
		c-5.27,10.51-10.44,23.43-22.25,27.91c-9.75,1.69-9.73-9.8-5.77-15.66c6.85-12.5,18.65-21.07,28.72-30.81
		c9.45-21.55,16.2-44.94,23.91-67.36C225.36,122.45,225.26,122.41,225.17,122.36z M196.3,203.36c-6.57,4.33-12.28,10.86-16.8,17.47
		c-0.87,1.74-6.08,11.15-1.01,9.31C187.72,224.29,191.35,212.77,196.3,203.36z M147.04,121.81c-4,7.35,2.31,12.81,5.88,3.77
		C150.99,124.34,149.05,123.1,147.04,121.81z M154.37,119.4c1.44-0.96-1.4-4.43-2.69-2.8C152.58,117.54,153.47,118.47,154.37,119.4z
		"/>
	<path class="st0" d="M411.79,88.14c1.64-0.89,3.72-0.57,4.92,0.85c0.88,1.04,1.09,2.35-0.15,3.85c-1.7,1.92-3.61,5.88-6.61,3.68
		C405.89,93.46,408.34,90.01,411.79,88.14z"/>
</g>
</svg>
